<?xml version="1.0" encoding="UTF-8" standalone="no"?>
<!-- Created with Inkscape (http://www.inkscape.org/) -->

<svg
   xmlns:dc="http://purl.org/dc/elements/1.1/"
   xmlns:cc="http://creativecommons.org/ns#"
   xmlns:rdf="http://www.w3.org/1999/02/22-rdf-syntax-ns#"
   xmlns:svg="http://www.w3.org/2000/svg"
   xmlns="http://www.w3.org/2000/svg"
   xmlns:sodipodi="http://sodipodi.sourceforge.net/DTD/sodipodi-0.dtd"
   xmlns:inkscape="http://www.inkscape.org/namespaces/inkscape"
   width="101.79798"
   height="146.65787"
   id="svg2"
   version="1.1"
   inkscape:version="0.48.0 r9654"
   sodipodi:docname="ECI-book.svg">
  <defs
     id="defs4" />
  <sodipodi:namedview
     id="base"
     pagecolor="#ffffff"
     bordercolor="#666666"
     borderopacity="1.0"
     inkscape:pageopacity="0"
     inkscape:pageshadow="2"
     inkscape:zoom="3.0820031"
     inkscape:cx="50.898991"
     inkscape:cy="73.328933"
     inkscape:document-units="px"
     inkscape:current-layer="layer1"
     showgrid="false"
     inkscape:window-width="1280"
     inkscape:window-height="643"
     inkscape:window-x="0"
     inkscape:window-y="24"
     inkscape:window-maximized="1"
     fit-margin-top="0"
     fit-margin-left="0"
     fit-margin-right="0"
     fit-margin-bottom="0"
     showborder="true"
     inkscape:showpageshadow="true" />
  <metadata
     id="metadata7">
    <rdf:RDF>
      <cc:Work
         rdf:about="">
        <dc:format>image/svg+xml</dc:format>
        <dc:type
           rdf:resource="http://purl.org/dc/dcmitype/StillImage" />
        <dc:title></dc:title>
      </cc:Work>
    </rdf:RDF>
  </metadata>
  <g
     inkscape:label="Layer 1"
     inkscape:groupmode="layer"
     id="layer1"
     transform="translate(20.571399,-489.71936)">
    <path
       style="fill:#000000"
       d="m -9.7488086,636.06001 c -1.4856704,-0.25496 -4.4901504,-2.42608 -6.7500004,-4.87772 l -4.07259,-4.41824 0,-8.96755 c 0,-25.61363 3.52104,-100.39888 4.83776,-102.75172 1.01199,-1.80833 5.9139504,-3.72058 43.43934,-16.94566 13.0774,-4.60887 24.93087,-8.37976 26.34103,-8.37976 1.45009,0 4.22275,1.41987 6.38228,3.26836 3.84905,3.29464 10.60585,5.73164 15.8915,5.73164 5.40295,0 5.50674,0.68007 4.23911,27.77579 -0.63618,13.59832 -1.66617,35.74921 -2.28887,49.22421 -0.7558,16.35513 -1.57556,25.38402 -2.46587,27.15916 -0.87325,1.74112 -2.98092,3.2669 -6.10498,4.41952 -18.41499,6.79419 -63.2875796,25.04278 -65.6126396,26.68307 -2.86472,2.02101 -8.89437,2.92698 -13.83607,2.0789 z m 11.5235,-5.83805 5.15391,-1.49741 0,-11.34978 0,-11.34979 -6.69532997,0.47765 c -4.84364003,0.34554 -7.85122003,0.0151 -10.87482043,-1.19466 -2.29872,-0.91977 -4.41035,-1.44144 -4.69251,-1.15928 -0.80275,0.80275 -1.5692,19.1137 -0.90951,21.72884 0.76406,3.02892 5.26934,5.78143 9.5182604,5.81522 1.84035,0.0146 5.66535,-0.64722 8.5,-1.47079 z M 41.229181,614.15331 c 16.33468,-6.36133 30.09529,-11.9547 30.57914,-12.42972 0.82864,-0.81352 2.06205,-20.26995 4.64986,-73.34922 0.61257,-12.56475 0.92778,-23.03099 0.70045,-23.25831 -0.22733,-0.22733 -14.09708,3.78525 -30.82168,8.91685 l -30.40835,9.33017 -0.65727,6.57379 c -0.6174,6.17501 -1.48646,21.29417 -3.89619,67.78249 -0.55593,10.725 -1.27242,21.4125 -1.5922096,23.75 -0.39661,2.8991 -0.21139,4.25 0.5827096,4.25 0.64027,0 14.52887,-5.20472 30.86354,-11.56605 z M 5.0371914,601.12605 c 2.3225,-0.62341 2.59446,-2.63193 4.02704,-29.7415 l 0.67824,-12.8348 -4.90693,0.80973 c -6.93401,1.14425 -10.98722,0.77654 -15.3760904,-1.39489 l -3.81193,-1.886 -0.72047,19.68297 c -0.39625,10.82563 -0.4356,20.58045 -0.0875,21.67738 0.34816,1.09694 1.63561,2.47832 2.86101,3.06974 2.3803504,1.14885 13.8367304,1.55682 17.3365904,0.61737 z m -0.22461,-46.57527 c 2.26381,-0.64272 4.40013,-1.43022 4.74738,-1.75 0.34725,-0.31978 0.9445096,-7.0554 1.3272396,-14.96805 0.63699,-13.1691 0.5552,-14.33264 -0.9664396,-13.74873 -0.91428,0.35084 -4.12458,0.92728 -7.134,1.28098 -4.51269,0.53037 -6.33754,0.23754 -10.41201,-1.67084 -2.7171804,-1.27266 -5.1225404,-2.12512 -5.3452304,-1.89436 -0.22269,0.23077 -0.55624,6.76926 -0.74121,14.52998 -0.35675,14.96766 0.0487,16.59101 4.6055704,18.43808 2.99141,1.21253 9.22577003,1.11531 13.9187,-0.21706 z M 31.092971,510.06666 c 20.53279,-7.88718 30.33563,-12.12265 30.33563,-13.10699 0,-0.97412 -0.57781,-1.23263 -1.75,-0.78295 -37.58703,14.41911 -61.9551496,24.01293 -62.6999996,24.6852 -3.09883,2.7969 7.27894,-0.48708 34.1143696,-10.79526 z m 11.58563,1.44728 c 15.2625,-5.09528 27.75,-9.6085 27.75,-10.02936 0,-2.32107 -9.64371,0.20787 -31.74701,8.32526 -13.61415,4.99977 -25.42799,9.48609 -26.25299,9.9696 -4.7940696,2.80966 5.50343,-0.004 30.25,-8.2655 z m -23.75,-2.79628 c 12.1,-4.47836 25.7125,-9.51977 30.25,-11.20313 4.5375,-1.68337 8.25,-3.48126 8.25,-3.99531 0,-0.51405 -1.0125,-0.61777 -2.25,-0.2305 -39.58867,12.38925 -66.64092,21.44512 -67.31359,22.53353 -0.33472,0.5416 -0.0808,1.62072 0.56438,2.39806 1.00507,1.21104 1.6972604,1.21485 4.8360904,0.0266 2.01471,-0.76271 13.56312,-5.05087 25.6631196,-9.52923 z"
       id="path2996"
       inkscape:connector-curvature="0" />
  </g>
</svg>
